<?xml version="1.0" encoding="UTF-8" standalone="no"?>
<svg
   xmlns:dc="http://purl.org/dc/elements/1.1/"
   xmlns:cc="http://creativecommons.org/ns#"
   xmlns:rdf="http://www.w3.org/1999/02/22-rdf-syntax-ns#"
   xmlns:svg="http://www.w3.org/2000/svg"
   xmlns="http://www.w3.org/2000/svg"
   xmlns:sodipodi="http://sodipodi.sourceforge.net/DTD/sodipodi-0.dtd"
   xmlns:inkscape="http://www.inkscape.org/namespaces/inkscape"
   width="210mm"
   height="297mm"
   viewBox="0 0 210 297"
   version="1.1"
   id="svg8"
   inkscape:version="1.0.1 (3bc2e813f5, 2020-09-07)"
   sodipodi:docname="drawing.svg">
  <defs
     id="defs2" />
  <sodipodi:namedview
     id="base"
     pagecolor="#ffffff"
     bordercolor="#666666"
     borderopacity="1.0"
     inkscape:pageopacity="0.0"
     inkscape:pageshadow="2"
     inkscape:zoom="0.5"
     inkscape:cx="443.58368"
     inkscape:cy="672.53608"
     inkscape:document-units="mm"
     inkscape:current-layer="layer1"
     inkscape:document-rotation="0"
     showgrid="false"
     inkscape:window-width="1920"
     inkscape:window-height="1017"
     inkscape:window-x="-8"
     inkscape:window-y="-8"
     inkscape:window-maximized="1" />
  <metadata
     id="metadata5">
    <rdf:RDF>
      <cc:Work
         rdf:about="">
        <dc:format>image/svg+xml</dc:format>
        <dc:type
           rdf:resource="http://purl.org/dc/dcmitype/StillImage" />
        <dc:title></dc:title>
      </cc:Work>
    </rdf:RDF>
  </metadata>
  <g
     inkscape:label="Layer 1"
     inkscape:groupmode="layer"
     id="layer1">
    <path
       style="fill:#000000;stroke-width:0.354474"
       d="m -16.516063,296.73777 c -23.271726,-2.85438 -42.811469,-5.19528 -43.421656,-5.20198 l -1.109426,-0.0122 0.201587,-4.02238 c 0.110873,-2.21234 2.168076,-65.3087 4.571564,-140.21415 2.403488,-74.90545 4.423637,-136.251519 4.489222,-136.324596 0.06559,-0.07308 15.821904,-4.2326066 35.014043,-9.2433981 l 34.894794,-9.11053 20.626616,3.4488017 20.626617,3.44880166 v 1.0647253 1.06472574 l -5.03717,1.2501959 C 34.29025,7.8619954 21.848422,14.663487 18.661952,22.389682 c -2.04694,4.96321 -0.752669,9.796812 4.285031,16.00291 11.493404,14.159071 15.123428,26.207889 10.937316,36.303291 -0.999705,2.410936 -1.729363,3.362214 -6.989921,9.112967 l -5.873706,6.42103 -0.720351,5.886423 c -1.749412,14.295597 -2.273855,31.670657 -1.225023,40.585687 1.595748,13.56384 5.379212,19.74877 12.075832,19.74069 1.358359,-0.002 3.262037,-0.30558 4.463115,-0.71257 4.563972,-1.54653 7.168651,-1.34219 9.285172,0.72845 1.91914,1.87754 2.653617,4.35909 2.821973,9.53452 0.257456,7.91412 -1.631144,18.28174 -5.831239,32.01112 l -2.178598,7.12145 -2.609606,3.51097 c -6.179348,8.31372 -12.324466,18.98099 -14.972923,25.99138 -3.324303,8.79932 -3.67112,13.24703 -1.732639,22.21975 1.549538,7.17236 3.709881,15.69046 6.469418,25.50845 l 2.208573,7.85773 -0.606184,5.89331 -0.606175,5.89327 -1.032929,-0.0365 c -0.568105,-0.0201 -20.0734278,-2.37191 -43.345151,-5.22626 z M 27.307311,84.416432 c 3.228229,-3.601455 5.945065,-6.548101 6.037414,-6.548101 0.09235,0 -2.473371,2.946646 -5.7016,6.548101 -3.22822,3.601458 -5.945055,6.548104 -6.037405,6.548104 -0.09235,0 2.473371,-2.946646 5.701591,-6.548104 z M 21.76643,18.748311 c 0.721401,-0.82319 1.387203,-1.496709 1.479553,-1.496709 0.09234,0 -0.422339,0.673519 -1.14374,1.496709 -0.721409,0.82319 -1.387203,1.496709 -1.479553,1.496709 -0.09235,0 0.422339,-0.673519 1.14374,-1.496709 z"
       id="path58" />
    <path
       style="fill:#000000;stroke-width:0.410482"
       d="m 228.79387,298.65825 c 31.20663,-2.85438 57.40881,-5.19528 58.22704,-5.20197 l 1.4877,-0.0122 -0.27032,-4.02238 c -0.14868,-2.21234 -2.90732,-65.3087 -6.13033,-140.21415 -3.22299,-74.905464 -5.93195,-136.251535 -6.0199,-136.324612 -0.088,-0.07308 -21.21665,-4.2326063 -46.95269,-9.2433985 l -46.79281,-9.1105302 -27.65962,3.4488017 -27.65962,3.4488017 v 1.0647254 1.0647256 l 6.75467,1.2501956 c 26.88625,4.9762104 43.57034,11.7777017 47.84329,19.5038957 2.74489,4.963211 1.00932,9.796812 -5.74609,16.002911 -15.41228,14.159071 -20.28002,26.207889 -14.66658,36.303291 1.34056,2.410936 2.31901,3.362214 9.37326,9.112967 l 7.87644,6.42103 0.96597,5.886423 c 2.3459,14.295613 3.04917,31.670663 1.64271,40.585703 -2.13983,13.56383 -7.21334,19.74877 -16.19329,19.74069 -1.82152,-0.002 -4.37428,-0.30558 -5.9849,-0.71257 -6.12013,-1.54653 -9.61294,-1.34219 -12.45112,0.72845 -2.57351,1.87754 -3.55841,4.35909 -3.78416,9.53452 -0.34524,7.91411 2.18731,18.28174 7.8195,32.01112 l 2.92143,7.12145 3.49939,3.51097 c 8.28631,8.31372 16.52672,18.98099 20.07821,25.99138 4.45778,8.79932 4.92285,13.24703 2.32341,22.21975 -2.07788,7.17235 -4.97482,15.69045 -8.67526,25.50845 l -2.96164,7.85773 0.81287,5.8933 0.81287,5.89328 1.38513,-0.0365 c 0.7618,-0.0201 26.91781,-2.37191 58.12444,-5.22626 z M 170.02814,86.336908 c -4.32896,-3.601456 -7.97215,-6.548102 -8.09599,-6.548102 -0.12383,0 3.31671,2.946646 7.64566,6.548102 4.32897,3.601458 7.97213,6.548104 8.09597,6.548104 0.12385,0 -3.31671,-2.946646 -7.64564,-6.548104 z m 7.43013,-65.668123 c -0.96737,-0.82319 -1.86019,-1.496709 -1.98401,-1.496709 -0.12385,0 0.56633,0.673519 1.5337,1.496709 0.96739,0.82319 1.86019,1.496708 1.98404,1.496708 0.12383,0 -0.56634,-0.673518 -1.53373,-1.496708 z"
       id="path58-5" />
  </g>
</svg>
